<svg viewBox="0 0 32 32" xmlns="http://www.w3.org/2000/svg">
  <circle cx="16" cy="16" r="16" fill="#2B3440" />
  <g transform="translate(16, 16)">
    <path
      d="M -6 -3 L -6 -10 Q -5.5 -10.5 -5 -10 L -5 -7 L -3.5 -8.5 Q -3 -9 -2.5 -8.5 L -2.5 -5.5 L -1 -6.5 Q -0.5 -7 0 -6.5 L 0 6 Q -3 7 -6 5 Z"
      fill="#20C9B6"
    />
    <path
      d="M 6 -3 L 6 -10 Q 5.5 -10.5 5 -10 L 5 -7 L 3.5 -8.5 Q 3 -9 2.5 -8.5 L 2.5 -5.5 L 1 -6.5 Q 0.5 -7 0 -6.5 L 0 6 Q 3 7 6 5 Z"
      fill="#4ADE80"
    />
  </g>
</svg>
